<svg width="308" height="89" viewBox="0 0 308 89" fill="none" xmlns="http://www.w3.org/2000/svg">
<path d="M135.216 43.842C138.63 41.6132 143.735 41.2864 147.981 41.7083C152.372 42.1125 156.52 43.1014 160.4 44.2859C168.251 46.6708 175.338 49.8064 181.948 53.3865C188.559 56.9667 194.653 60.9558 199.591 65.6562C202.025 68.0005 204.247 70.493 205.566 73.3136C206.899 76.0512 207.254 79.5593 204.138 82.2385C200.846 84.8445 195.31 85.4954 190.699 85.2809C185.943 85.0842 181.499 84.3146 177.228 83.219C168.684 81.0417 161.06 77.7561 154.142 74.0516C147.238 70.2641 141.386 65.6902 137.109 60.5629C135.047 57.9697 133.311 55.248 132.52 52.3621C131.646 49.5474 131.906 46.1458 135.214 43.8558M140.656 46.8633C139.333 48.1297 139.343 49.9688 140.47 52.0012C141.557 53.9981 143.523 56.062 145.706 57.9639C150.08 61.8545 155.751 65.3005 161.424 68.6042C167.195 71.8823 173.594 74.7849 180.206 76.8697C186.559 78.9526 194.244 80.1266 197.134 78.3483C198.572 77.5006 199.208 75.7306 198.54 73.621C197.941 71.5233 196.569 69.2776 194.69 67.1149C190.916 62.7441 185.55 58.7529 179.498 55.1983C173.382 51.7465 166.534 48.7235 159.178 46.866C155.531 45.9639 151.816 45.3206 148.425 45.2461C144.957 45.0729 142.015 45.6601 140.653 46.8771" fill="url(#paint0_linear_4214_10850)"/>
<path d="M108.684 33.5726C113.294 30.9231 120.289 30.6239 126.134 31.2205C132.175 31.7981 137.904 33.0836 143.271 34.6022C154.131 37.6605 163.969 41.6187 173.168 46.1094C182.367 50.6 190.871 55.579 197.812 61.4023C201.236 64.3061 204.371 67.3863 206.28 70.8488C208.206 74.2104 208.815 78.492 204.629 81.696C200.2 84.8076 192.623 85.4933 186.285 85.1425C179.751 84.8105 173.623 83.7865 167.722 82.3687C155.917 79.5499 145.337 75.3984 135.712 70.7502C126.103 66.0012 117.912 60.3144 111.863 53.9839C108.941 50.784 106.464 47.4339 105.278 43.9021C103.98 40.4554 104.22 36.3156 108.681 33.5894M116.256 37.3597C114.484 38.8771 114.562 41.1182 116.18 43.6166C117.74 46.0709 120.511 48.6239 123.574 50.9837C129.713 55.8093 137.618 60.1183 145.52 64.254C153.555 68.3603 162.441 72.0213 171.589 74.6899C180.384 77.3511 190.974 78.9307 194.88 76.8199C196.825 75.8149 197.636 73.6705 196.646 71.087C195.751 68.5193 193.789 65.7563 191.135 63.0846C185.802 57.6856 178.298 52.7182 169.867 48.2695C161.351 43.9448 151.845 40.1284 141.684 37.7223C136.646 36.5523 131.523 35.6964 126.865 35.5398C122.099 35.2615 118.08 35.9199 116.253 37.3765" fill="url(#paint1_linear_4214_10850)"/>
<path d="M104.388 35.5616C106.543 24.416 113.347 13.9459 123.161 7.29763C128.112 4.06238 133.705 1.71594 139.636 0.649374C145.568 -0.434967 151.695 -0.132774 157.519 1.34264C169.185 4.32902 179.427 12.1505 185.162 22.4784C190.951 32.753 192.162 45.214 188.938 56.1285C185.803 67.0786 178.109 76.3755 168.509 81.6195C158.944 87.0056 147.384 88.4632 137 85.7257C126.616 83.0415 117.105 76.6777 110.978 67.5763C104.619 58.5461 102.126 46.7072 104.388 35.5616ZM113.543 37.7658C110.942 46.3161 111.779 56.0041 116.09 64.3233C118.352 68.4296 121.38 72.1448 125.156 75.0779C128.932 78.0109 133.331 80.0196 137.998 81.1395C147.313 83.2371 157.359 81.3884 165.107 76.1444C172.89 70.9183 178.091 62.599 179.658 53.8354C181.279 45.0363 179.16 35.9882 174.315 28.9311C169.506 21.8918 162.168 16.8434 154.028 15.0836C146.048 13.3237 137.374 14.1592 129.822 18.1588C122.181 22.0162 116.143 29.1622 113.561 37.7303" fill="url(#paint2_linear_4214_10850)"/>
<path d="M291.354 13.4863C300.13 13.4863 307.251 20.6074 307.251 29.3109C307.251 38.0863 300.13 45.1354 291.354 45.1354H270.708V60.8881H261.644V13.6302H262.148V13.4863H291.354ZM291.354 37.1512C295.67 37.1512 299.195 33.6267 299.195 29.3109C299.195 25.067 295.67 21.5425 291.354 21.5425H270.708V37.1512H291.354Z" fill="url(#paint3_linear_4214_10850)"/>
<path d="M247.454 60.96V13.4863H256.59V60.96H247.454Z" fill="url(#paint4_linear_4214_10850)"/>
<path d="M233.239 13.4863H242.447V43.4091C242.447 53.0477 234.534 60.8881 224.894 60.8881H212.809C203.17 60.8881 195.329 53.0477 195.329 43.4091V13.4863H204.464V43.4091C204.464 48.0126 208.205 51.753 212.809 51.753H224.894C229.498 51.753 233.239 48.0126 233.239 43.4091V13.4863Z" fill="url(#paint5_linear_4214_10850)"/>
<path d="M67.4032 53.5507H99.3426V60.8875H65.9645C57.9796 60.8875 51.5054 54.4139 51.5054 46.4297V37.2946C51.5054 29.3104 57.9796 22.8367 65.9645 22.8367H91.7175C95.3862 22.8367 98.3356 25.7858 98.3356 29.4542V32.2595C98.3356 34.6332 97.0407 36.863 95.0265 38.0139C89.1278 41.4665 82.9413 44.9191 77.5461 47.9402L67.4032 53.5507ZM63.2309 47.5805C66.3241 45.7823 69.7051 43.9121 73.8774 41.5384C77.2584 39.6682 80.7832 37.6542 84.38 35.6402L94.0913 30.1735H65.9645C62.008 30.1735 58.8428 33.4104 58.8428 37.2946V50.0261L63.2309 47.5805Z" fill="url(#paint6_linear_4214_10850)"/>
<path d="M28.5157 13.4863C39.2342 13.4863 47.9384 22.1898 47.9384 32.8354V41.539C47.9384 52.2565 39.2342 60.96 28.5157 60.96H0.748535V13.4863H28.5157ZM38.7306 41.539V32.8354C38.7306 27.2249 34.1267 22.6933 28.5157 22.6933H9.88438V51.753H28.5157C34.1267 51.753 38.7306 47.1495 38.7306 41.539Z" fill="url(#paint7_linear_4214_10850)"/>
<path d="M246.819 86.579C247.814 86.579 248.618 86.1645 249.233 85.3356L260.701 68.9381C260.779 68.8113 260.818 68.6845 260.818 68.5577C260.818 68.431 260.779 68.3091 260.701 68.192L259.721 66.7878C259.594 66.6025 259.418 66.5099 259.194 66.5099H258.536C257.541 66.5099 256.737 66.9243 256.122 67.7532L244.64 84.1508C244.561 84.2776 244.522 84.4043 244.522 84.5311C244.522 84.6579 244.561 84.7798 244.64 84.8968L245.62 86.301C245.766 86.4863 245.946 86.579 246.161 86.579H246.819ZM252.743 88.3928H238.394C237.955 88.3928 237.594 88.2075 237.311 87.8369L235.527 85.2771C235.37 85.0431 235.292 84.7944 235.292 84.5311C235.292 84.2678 235.37 84.0191 235.527 83.7851L246.76 67.7386C248.253 65.7102 250.198 64.696 252.597 64.696H266.961C267.4 64.696 267.756 64.8813 268.029 65.2519L269.828 67.8117C269.984 68.0458 270.062 68.2944 270.062 68.5577C270.062 68.821 269.984 69.0697 269.828 69.3037L258.594 85.3502C257.902 86.3352 257.053 87.0909 256.049 87.6175C255.045 88.1344 253.943 88.3928 252.743 88.3928Z" fill="url(#paint8_linear_4214_10850)"/>
<path d="M225.388 88.3928H211.039C210.6 88.3928 210.239 88.2075 209.956 87.8369L208.172 85.2771C208.016 85.043 207.938 84.7944 207.938 84.5311C207.938 84.2678 208.016 84.0191 208.172 83.7851L210.512 80.4353C210.785 80.0648 211.141 79.8795 211.58 79.8795H219.025C219.279 79.8795 219.469 79.9965 219.596 80.2306C219.644 80.3281 219.669 80.4305 219.669 80.5377C219.669 80.6645 219.63 80.7864 219.552 80.9034L217.285 84.1508C217.207 84.2775 217.168 84.4043 217.168 84.5311C217.168 84.6579 217.207 84.7797 217.285 84.8968L218.265 86.301C218.411 86.4863 218.591 86.5789 218.806 86.5789H219.464C220.459 86.5789 221.263 86.1645 221.878 85.3356L227.816 76.8369C227.894 76.7199 227.933 76.5932 227.933 76.4566C227.933 76.3299 227.894 76.208 227.816 76.0909L226.836 74.7013C226.71 74.516 226.534 74.4234 226.31 74.4234H224.437C224.223 74.4234 224.047 74.516 223.911 74.7013L222.989 76.0032C222.716 76.3737 222.36 76.559 221.921 76.559H214.491C214.247 76.559 214.052 76.442 213.906 76.208C213.857 76.1104 213.832 76.0081 213.832 75.9008C213.832 75.774 213.871 75.6521 213.949 75.5351L221.146 65.2519C221.419 64.8716 221.775 64.6814 222.214 64.6814H243.409C243.526 64.6814 243.619 64.7448 243.687 64.8716C243.717 64.9203 243.731 64.9739 243.731 65.0325C243.731 65.091 243.712 65.1495 243.673 65.208L243.161 65.9394C242.897 66.3099 242.537 66.4952 242.078 66.4952H230.332C229.893 66.4952 229.538 66.6805 229.265 67.0511L226.09 71.571C226.012 71.688 225.973 71.8148 225.973 71.9513C225.973 72.0586 225.998 72.161 226.046 72.2585C226.193 72.4925 226.388 72.6096 226.632 72.6096L234.077 72.5949C234.516 72.5949 234.872 72.7851 235.145 73.1654L236.929 75.7106C237.095 75.9544 237.178 76.2031 237.178 76.4566C237.178 76.7199 237.095 76.9735 236.929 77.2173L231.239 85.3502C229.737 87.3786 227.787 88.3928 225.388 88.3928Z" fill="url(#paint9_linear_4214_10850)"/>
<defs>
<linearGradient id="paint0_linear_4214_10850" x1="172.371" y1="45.7696" x2="170.095" y2="96.4206" gradientUnits="userSpaceOnUse">
<stop stop-color="white"/>
<stop offset="1" stop-color="#999999"/>
</linearGradient>
<linearGradient id="paint1_linear_4214_10850" x1="159.757" y1="36.6424" x2="156.435" y2="98.2111" gradientUnits="userSpaceOnUse">
<stop stop-color="white"/>
<stop offset="1" stop-color="#999999"/>
</linearGradient>
<linearGradient id="paint2_linear_4214_10850" x1="147.129" y1="-4.35655e-07" x2="178.382" y2="114.007" gradientUnits="userSpaceOnUse">
<stop stop-color="white"/>
<stop offset="1" stop-color="#999999"/>
</linearGradient>
<linearGradient id="paint3_linear_4214_10850" x1="284.448" y1="13.4863" x2="302.04" y2="75.1981" gradientUnits="userSpaceOnUse">
<stop stop-color="white"/>
<stop offset="1" stop-color="#999999"/>
</linearGradient>
<linearGradient id="paint4_linear_4214_10850" x1="252.022" y1="13.4863" x2="283.443" y2="35.5316" gradientUnits="userSpaceOnUse">
<stop stop-color="white"/>
<stop offset="1" stop-color="#999999"/>
</linearGradient>
<linearGradient id="paint5_linear_4214_10850" x1="218.888" y1="13.4863" x2="235.997" y2="75.4921" gradientUnits="userSpaceOnUse">
<stop stop-color="white"/>
<stop offset="1" stop-color="#999999"/>
</linearGradient>
<linearGradient id="paint6_linear_4214_10850" x1="75.424" y1="22.8367" x2="86.579" y2="73.9667" gradientUnits="userSpaceOnUse">
<stop stop-color="white"/>
<stop offset="1" stop-color="#999999"/>
</linearGradient>
<linearGradient id="paint7_linear_4214_10850" x1="24.3435" y1="13.4863" x2="41.4786" y2="75.5863" gradientUnits="userSpaceOnUse">
<stop stop-color="white"/>
<stop offset="1" stop-color="#999999"/>
</linearGradient>
<linearGradient id="paint8_linear_4214_10850" x1="252.677" y1="64.696" x2="258.702" y2="96.9274" gradientUnits="userSpaceOnUse">
<stop stop-color="white"/>
<stop offset="1" stop-color="#999999"/>
</linearGradient>
<linearGradient id="paint9_linear_4214_10850" x1="225.834" y1="64.6814" x2="231.705" y2="96.9929" gradientUnits="userSpaceOnUse">
<stop stop-color="white"/>
<stop offset="1" stop-color="#999999"/>
</linearGradient>
</defs>
</svg>
