<svg version="1.2" xmlns="http://www.w3.org/2000/svg" viewBox="0 0 63 57" width="63" height="57">
	<title>Figma Cursor Chat</title>
	<style>
		.s0 { fill: #343a40 } 
		.s1 { fill: none;stroke: #212529 } 
		.s2 { fill: #ffffff } 
		.s3 { fill: #000000;stroke: #ffffff;stroke-width: 1.5 } 
	</style>
	<g>
		<path class="s0" d="m15 23c0-0.6 0.4-1 1-1h28c8.8 0 16 7.2 16 16 0 8.8-7.2 16-16 16h-17c-6.6 0-12-5.4-12-12z"/>
		<path class="s1" d="m44 21.5c9.1 0 16.5 7.4 16.5 16.5 0 9.1-7.4 16.5-16.5 16.5h-17c-6.9 0-12.5-5.6-12.5-12.5v-19c0-0.8 0.7-1.5 1.5-1.5z"/>
		<path class="s2" d="m28.4 33.5l2.2 4.3 2.2-4.3h1.3l-2.9 5.3v3.2h-1.2v-3.2l-2.9-5.3zm6 5.4v-0.1q0-0.7 0.2-1.3 0.2-0.6 0.5-1 0.4-0.5 0.9-0.7 0.6-0.3 1.2-0.3 0.7 0 1.2 0.3 0.6 0.2 1 0.7 0.3 0.4 0.5 1 0.2 0.6 0.2 1.3v0.1q0 0.7-0.2 1.3-0.2 0.6-0.5 1-0.4 0.4-1 0.7-0.5 0.2-1.1 0.2-0.7 0-1.2-0.2-0.6-0.3-1-0.7-0.3-0.4-0.5-1-0.2-0.6-0.2-1.3zm1-0.1v0.1q0 0.5 0.2 0.9 0.1 0.4 0.3 0.7 0.2 0.4 0.6 0.5 0.3 0.2 0.8 0.2 0.4 0 0.7-0.2 0.4-0.1 0.6-0.5 0.2-0.3 0.3-0.7 0.1-0.4 0.1-0.9v-0.1q0-0.5-0.1-0.9-0.1-0.4-0.3-0.8-0.2-0.3-0.6-0.5-0.3-0.2-0.8-0.2-0.4 0-0.7 0.2-0.4 0.2-0.6 0.5-0.2 0.4-0.3 0.8-0.2 0.4-0.2 0.9zm10 1.7v-4.8h1.1v6.3h-1.1zm0.2-1.3h0.5q0 0.6-0.2 1.1-0.1 0.6-0.4 0.9-0.3 0.4-0.7 0.7-0.5 0.2-1.2 0.2-0.5 0-0.8-0.2-0.4-0.1-0.7-0.4-0.3-0.3-0.4-0.7-0.2-0.5-0.2-1.1v-4.1h1.1v4.1q0 0.5 0.1 0.7 0.1 0.3 0.3 0.5 0.1 0.1 0.3 0.2 0.3 0.1 0.5 0.1 0.7 0 1.1-0.3 0.4-0.3 0.6-0.7 0.1-0.5 0.1-1z"/>
	</g>
	<g>
		<path class="s3" d="m1.6 5.6c-0.3-1.1 0.9-2 2-1.5h0.1l14.7 8.8c1.1 0.6 0.9 2.2-0.3 2.5l-6.7 1.8-3.1 5.7c-0.7 1.1-2.3 0.9-2.6-0.3z"/>
	</g>
</svg>