<svg width="64" height="64" viewBox="0 0 64 64" fill="none" xmlns="http://www.w3.org/2000/svg">
<circle cx="32" cy="32" r="32" fill="#191919"/>
<path opacity="0.5" d="M24 30.5V22.75H40V30.5C40 33.5641 40 35.0962 38.9958 36.0481C37.9916 37 36.3753 37 33.1429 37H32.75H31.25H30.8571C27.6247 37 26.0084 37 25.0042 36.0481C24 35.0962 24 33.5641 24 30.5Z" fill="url(#paint0_linear_4186_10445)"/>
<path d="M35.5303 29.0303C35.8232 28.7374 35.8232 28.2626 35.5303 27.9697C35.2374 27.6768 34.7626 27.6768 34.4697 27.9697L33.1768 29.2626C33.1067 29.3326 33.0499 29.3894 33 29.4377C32.9501 29.3894 32.8933 29.3326 32.8232 29.2626L32.213 28.6524C32.0681 28.5073 31.9113 28.3504 31.7612 28.2358C31.5852 28.1016 31.3335 27.9571 31 27.9571C30.6665 27.9571 30.4148 28.1016 30.2388 28.2358C30.0887 28.3504 29.9319 28.5073 29.7869 28.6524L28.4697 29.9697C28.1768 30.2626 28.1768 30.7374 28.4697 31.0303C28.7626 31.3232 29.2374 31.3232 29.5303 31.0303L30.8232 29.7374C30.8933 29.6674 30.9501 29.6106 31 29.5623C31.0499 29.6106 31.1067 29.6674 31.1768 29.7374L31.7869 30.3476C31.9319 30.4927 32.0887 30.6496 32.2388 30.7642C32.4148 30.8984 32.6665 31.0429 33 31.0429C33.3335 31.0429 33.5852 30.8984 33.7612 30.7642C33.9113 30.6496 34.0681 30.4927 34.2131 30.3476L35.5303 29.0303Z" fill="url(#paint1_linear_4186_10445)"/>
<path d="M22 21.25C21.5858 21.25 21.25 21.5858 21.25 22C21.25 22.4142 21.5858 22.75 22 22.75H24H40H42C42.4142 22.75 42.75 22.4142 42.75 22C42.75 21.5858 42.4142 21.25 42 21.25H22Z" fill="url(#paint2_linear_4186_10445)"/>
<path d="M31.2502 37V40.5365L29.6648 41.3292C29.2943 41.5144 29.1441 41.9649 29.3293 42.3354C29.5146 42.7059 29.9651 42.8561 30.3356 42.6708L32.0002 41.8385L33.6648 42.6708C34.0352 42.8561 34.4857 42.7059 34.671 42.3354C34.8562 41.9649 34.7061 41.5144 34.3356 41.3292L32.7502 40.5365V37H31.2502Z" fill="url(#paint3_linear_4186_10445)"/>
<defs>
<linearGradient id="paint0_linear_4186_10445" x1="25" y1="12.5078" x2="30.644" y2="34.2351" gradientUnits="userSpaceOnUse">
<stop stop-color="white"/>
<stop offset="1" stop-color="#A3A3A3"/>
</linearGradient>
<linearGradient id="paint1_linear_4186_10445" x1="28.7187" y1="25.2344" x2="29.48" y2="30.8274" gradientUnits="userSpaceOnUse">
<stop stop-color="white"/>
<stop offset="1" stop-color="#A3A3A3"/>
</linearGradient>
<linearGradient id="paint2_linear_4186_10445" x1="22.5937" y1="20.1719" x2="22.6434" y2="22.6123" gradientUnits="userSpaceOnUse">
<stop stop-color="white"/>
<stop offset="1" stop-color="#A3A3A3"/>
</linearGradient>
<linearGradient id="paint3_linear_4186_10445" x1="29.5938" y1="32.8671" x2="32.2047" y2="41.4299" gradientUnits="userSpaceOnUse">
<stop stop-color="white"/>
<stop offset="1" stop-color="#A3A3A3"/>
</linearGradient>
</defs>
</svg>
