<svg width="64" height="64" viewBox="0 0 64 64" fill="none" xmlns="http://www.w3.org/2000/svg">
<circle cx="32" cy="32" r="32" fill="#191919"/>
<path opacity="0.5" d="M23.1716 27.1716C24.0154 26.3278 25.2295 26.0917 27.2518 26.0257L28.7521 26.0019C29.1435 26 29.5588 26 30 26H34C34.4412 26 34.8565 26 35.2479 26.0019L36.7482 26.0257C38.7705 26.0917 39.9846 26.3278 40.8284 27.1716C42 28.3431 42 30.2288 42 34C42 37.7712 42 39.6569 40.8284 40.8284C39.6569 42 37.7712 42 34 42H30C26.2288 42 24.3431 42 23.1716 40.8284C22 39.6569 22 37.7712 22 34C22 30.2288 22 28.3431 23.1716 27.1716Z" fill="url(#paint0_linear_4186_10433)"/>
<path d="M32.75 30C32.75 29.5858 32.4142 29.25 32 29.25C31.5858 29.25 31.25 29.5858 31.25 30V30.0102C30.1612 30.2845 29.25 31.143 29.25 32.3333C29.25 33.7903 30.6151 34.75 32 34.75C32.8242 34.75 33.25 35.2826 33.25 35.6667C33.25 36.0507 32.8242 36.5833 32 36.5833C31.1758 36.5833 30.75 36.0507 30.75 35.6667C30.75 35.2525 30.4142 34.9167 30 34.9167C29.5858 34.9167 29.25 35.2525 29.25 35.6667C29.25 36.857 30.1612 37.7155 31.25 37.9898V38C31.25 38.4142 31.5858 38.75 32 38.75C32.4142 38.75 32.75 38.4142 32.75 38V37.9898C33.8388 37.7155 34.75 36.857 34.75 35.6667C34.75 34.2097 33.3849 33.25 32 33.25C31.1758 33.25 30.75 32.7174 30.75 32.3333C30.75 31.9493 31.1758 31.4167 32 31.4167C32.8242 31.4167 33.25 31.9493 33.25 32.3333C33.25 32.7475 33.5858 33.0833 34 33.0833C34.4142 33.0833 34.75 32.7475 34.75 32.3333C34.75 31.143 33.8388 30.2845 32.75 30.0102V30Z" fill="url(#paint1_linear_4186_10433)"/>
<path d="M32.0522 21.25H31.9482C31.0497 21.25 30.3005 21.2499 29.7057 21.3299C29.0779 21.4143 28.5111 21.6 28.0556 22.0555C27.6001 22.5109 27.4145 23.0777 27.3301 23.7055C27.2727 24.1319 27.2565 25.1515 27.252 26.0257L28.7522 26.0019C28.7568 25.1552 28.7712 24.2441 28.8167 23.9054C28.8787 23.4439 28.986 23.2464 29.1163 23.1161C29.2466 22.9858 29.4441 22.8786 29.9056 22.8165C30.3886 22.7516 31.0362 22.75 32.0002 22.75C32.9642 22.75 33.6117 22.7516 34.0948 22.8165C34.5562 22.8786 34.7537 22.9858 34.884 23.1161C35.0144 23.2464 35.1216 23.4439 35.1836 23.9054C35.2292 24.2441 35.2436 25.1552 35.2481 26.0019L36.7484 26.0257C36.7438 25.1515 36.7276 24.1319 36.6702 23.7055C36.5858 23.0777 36.4002 22.5109 35.9447 22.0555C35.4892 21.6 34.9224 21.4143 34.2946 21.3299C33.6999 21.2499 32.9506 21.25 32.0522 21.25Z" fill="url(#paint2_linear_4186_10433)"/>
<defs>
<linearGradient id="paint0_linear_4186_10433" x1="23.25" y1="14.5" x2="29.0126" y2="39.1971" gradientUnits="userSpaceOnUse">
<stop stop-color="white"/>
<stop offset="1" stop-color="#A3A3A3"/>
</linearGradient>
<linearGradient id="paint1_linear_4186_10433" x1="29.5937" y1="22.4219" x2="35.8066" y2="34.7542" gradientUnits="userSpaceOnUse">
<stop stop-color="white"/>
<stop offset="1" stop-color="#A3A3A3"/>
</linearGradient>
<linearGradient id="paint2_linear_4186_10433" x1="27.8455" y1="17.8175" x2="28.9616" y2="25.4267" gradientUnits="userSpaceOnUse">
<stop stop-color="white"/>
<stop offset="1" stop-color="#A3A3A3"/>
</linearGradient>
</defs>
</svg>
