<svg width="64" height="64" viewBox="0 0 64 64" fill="none" xmlns="http://www.w3.org/2000/svg">
<circle cx="32" cy="32" r="32" fill="#191919"/>
<path d="M26.2599 41.3884H26C25.0572 41.3884 24.5858 41.3884 24.2929 41.0955C24 40.8026 24 40.3312 24 39.3884V38.2764C24 37.7579 24 37.4987 24.1332 37.2672C24.2664 37.0356 24.4673 36.9188 24.8691 36.6851C27.5146 35.1464 31.2715 34.2803 33.7791 35.7759C33.9475 35.8764 34.0991 35.9977 34.2285 36.1431C34.7866 36.77 34.746 37.7161 34.1028 38.2775C33.9669 38.396 33.8222 38.486 33.6764 38.5172C33.7962 38.5033 33.911 38.4874 34.0206 38.4699C34.932 38.3245 35.697 37.8375 36.3974 37.3084L38.2046 35.9433C38.8417 35.462 39.7873 35.4619 40.4245 35.943C40.9982 36.3762 41.1736 37.0894 40.8109 37.6707C40.388 38.3487 39.7921 39.216 39.2199 39.7459C38.6469 40.2766 37.7939 40.7504 37.0975 41.0865C36.326 41.4589 35.4738 41.6734 34.6069 41.8138C32.8488 42.0983 31.0166 42.0549 29.2763 41.6964C28.2925 41.4937 27.2708 41.3884 26.2599 41.3884Z" fill="url(#paint0_linear_4186_10450)"/>
<path d="M26.5858 22.5858C26.219 22.9526 26.0819 23.4593 26.0306 24.2498C27.249 24.2335 28.2335 23.249 28.2498 22.0306C27.4593 22.0819 26.9526 22.219 26.5858 22.5858Z" fill="url(#paint1_linear_4186_10450)"/>
<path d="M37.4142 22.5858C37.0474 22.219 36.5407 22.0819 35.7502 22.0306C35.7664 23.249 36.751 24.2336 37.9694 24.2498C37.9181 23.4593 37.781 22.9526 37.4142 22.5858Z" fill="url(#paint2_linear_4186_10450)"/>
<path d="M37.4142 29.4142C37.0474 29.781 36.5407 29.9181 35.7502 29.9694C35.7665 28.751 36.751 27.7664 37.9694 27.7502C37.9181 28.5407 37.781 29.0474 37.4142 29.4142Z" fill="url(#paint3_linear_4186_10450)"/>
<path d="M26.5858 29.4142C26.9526 29.781 27.4593 29.9181 28.2498 29.9694C28.2335 28.751 27.249 27.7665 26.0306 27.7502C26.0819 28.5407 26.219 29.0474 26.5858 29.4142Z" fill="url(#paint4_linear_4186_10450)"/>
<path fill-rule="evenodd" clip-rule="evenodd" d="M26 25.75C28.0711 25.75 29.75 24.0711 29.75 22H34.25C34.25 24.0711 35.9289 25.75 38 25.75V26.25C35.9289 26.25 34.25 27.9289 34.25 30H29.75C29.75 27.9289 28.0711 26.25 26 26.25V25.75ZM32 27C32.5523 27 33 26.5523 33 26C33 25.4477 32.5523 25 32 25C31.4477 25 31 25.4477 31 26C31 26.5523 31.4477 27 32 27Z" fill="url(#paint5_linear_4186_10450)"/>
<defs>
<linearGradient id="paint0_linear_4186_10450" x1="25.0625" y1="29.9687" x2="26.4113" y2="41.2" gradientUnits="userSpaceOnUse">
<stop stop-color="white"/>
<stop offset="1" stop-color="#A3A3A3"/>
</linearGradient>
<linearGradient id="paint1_linear_4186_10450" x1="26.75" y1="16.25" x2="29.1896" y2="28.7965" gradientUnits="userSpaceOnUse">
<stop stop-color="white"/>
<stop offset="1" stop-color="#A3A3A3"/>
</linearGradient>
<linearGradient id="paint2_linear_4186_10450" x1="26.75" y1="16.25" x2="29.1896" y2="28.7965" gradientUnits="userSpaceOnUse">
<stop stop-color="white"/>
<stop offset="1" stop-color="#A3A3A3"/>
</linearGradient>
<linearGradient id="paint3_linear_4186_10450" x1="26.75" y1="16.25" x2="29.1896" y2="28.7965" gradientUnits="userSpaceOnUse">
<stop stop-color="white"/>
<stop offset="1" stop-color="#A3A3A3"/>
</linearGradient>
<linearGradient id="paint4_linear_4186_10450" x1="26.75" y1="16.25" x2="29.1896" y2="28.7965" gradientUnits="userSpaceOnUse">
<stop stop-color="white"/>
<stop offset="1" stop-color="#A3A3A3"/>
</linearGradient>
<linearGradient id="paint5_linear_4186_10450" x1="26.75" y1="16.25" x2="29.1896" y2="28.7965" gradientUnits="userSpaceOnUse">
<stop stop-color="white"/>
<stop offset="1" stop-color="#A3A3A3"/>
</linearGradient>
</defs>
</svg>
