<svg width="163" height="60" viewBox="0 0 163 60" fill="none" xmlns="http://www.w3.org/2000/svg">
<path d="M23.8244 29.099C26.0906 27.6197 29.4784 27.4028 32.297 27.6829C35.2111 27.9511 37.9645 28.6075 40.5397 29.3937C45.7504 30.9766 50.4542 33.0578 54.8419 35.434C59.2297 37.8102 63.2744 40.4579 66.5517 43.5777C68.1677 45.1337 69.6419 46.788 70.5176 48.6601C71.4027 50.4771 71.6383 52.8056 69.5696 54.5838C67.3846 56.3135 63.7103 56.7455 60.6497 56.6031C57.4936 56.4726 54.5436 55.9618 51.7089 55.2346C46.038 53.7895 40.9775 51.6087 36.3859 49.1499C31.8038 46.6361 27.9198 43.6003 25.0811 40.1972C23.7119 38.476 22.56 36.6695 22.0347 34.7541C21.4545 32.8859 21.6274 30.6282 23.8228 29.1082M27.4349 31.1044C26.557 31.9449 26.5638 33.1656 27.3118 34.5145C28.0328 35.8399 29.3382 37.2098 30.7868 38.4721C33.6898 41.0544 37.4541 43.3416 41.2192 45.5344C45.0496 47.7101 49.297 49.6367 53.6853 51.0204C57.9023 52.4029 63.003 53.1821 64.9214 52.0018C65.8759 51.4391 66.2975 50.2643 65.8543 48.8642C65.4566 47.4719 64.5461 45.9813 63.2988 44.5459C60.7938 41.6449 57.2324 38.9958 53.2157 36.6366C49.156 34.3455 44.6107 32.339 39.7289 31.1061C37.3083 30.5074 34.8423 30.0804 32.5915 30.031C30.2897 29.916 28.3367 30.3058 27.4333 31.1135" fill="url(#paint0_linear_4520_4290)"/>
<path d="M6.21435 22.2832C9.27417 20.5246 13.9172 20.326 17.7963 20.722C21.806 21.1054 25.6086 21.9586 29.171 22.9665C36.3791 24.9964 42.9084 27.6235 49.0142 30.6041C55.12 33.5847 60.7642 36.8894 65.3714 40.7545C67.6437 42.6818 69.7249 44.7262 70.9918 47.0243C72.2699 49.2555 72.6741 52.0973 69.8958 54.2239C66.9562 56.2892 61.9272 56.7443 57.7208 56.5114C53.3836 56.2911 49.3161 55.6115 45.3995 54.6704C37.5645 52.7995 30.542 50.0441 24.1535 46.9589C17.7762 43.8069 12.3391 40.0324 8.32427 35.8307C6.385 33.7068 4.74112 31.4832 3.95361 29.1391C3.09234 26.8515 3.25136 24.1038 6.21248 22.2943M11.2404 24.7967C10.0643 25.8039 10.1159 27.2914 11.1896 28.9496C12.2252 30.5786 14.0647 32.2731 16.0972 33.8393C20.1718 37.0422 25.4186 39.9022 30.6633 42.6472C35.9969 45.3726 41.8946 47.8026 47.9666 49.5738C53.8036 51.3401 60.8327 52.3885 63.4254 50.9875C64.7161 50.3205 65.2542 48.8972 64.5973 47.1825C64.0031 45.4782 62.7014 43.6443 60.9394 41.8711C57.4001 38.2876 52.4193 34.9906 46.8234 32.0379C41.171 29.1674 34.8617 26.6344 28.1173 25.0374C24.7736 24.2609 21.3736 23.6927 18.282 23.5888C15.1181 23.4041 12.4507 23.8411 11.2385 24.8079" fill="url(#paint1_linear_4520_4290)"/>
<path d="M3.36293 23.6032C4.79338 16.2056 9.30934 9.25626 15.8232 4.84363C19.1097 2.69631 22.8218 1.13891 26.7585 0.431007C30.6952 -0.288699 34.7619 -0.0881255 38.6277 0.891147C46.371 2.87329 53.1686 8.06461 56.9752 14.9195C60.8174 21.739 61.6212 30.0098 59.4815 37.254C57.4008 44.5219 52.2938 50.6925 45.9218 54.173C39.5734 57.7479 31.901 58.7154 25.0088 56.8985C18.1167 55.1169 11.8038 50.893 7.73703 44.8522C3.51661 38.8586 1.86155 31.0008 3.36293 23.6032ZM9.43938 25.0662C7.71339 30.7413 8.26901 37.1714 11.1299 42.6931C12.6313 45.4186 14.641 47.8844 17.1473 49.8312C19.6535 51.7779 22.5735 53.1112 25.6709 53.8545C31.8537 55.2467 38.5213 54.0196 43.6638 50.5391C48.83 47.0703 52.2819 41.5487 53.3223 35.732C54.3981 29.8918 52.9913 23.8864 49.7757 19.2024C46.5838 14.5302 41.7132 11.1794 36.3106 10.0114C31.0143 8.84331 25.2571 9.39784 20.2446 12.0525C15.173 14.6128 11.1654 19.3557 9.4512 25.0426" fill="url(#paint2_linear_4520_4290)"/>
<path d="M131.987 12H162.809C162.879 12.014 162.915 12.0491 162.915 12.1053V17.2633C162.915 17.3335 162.879 17.3686 162.809 17.3686H151.04V34.485C151.04 34.5552 151.005 34.5903 150.935 34.5903H143.903C143.833 34.5903 143.798 34.5552 143.798 34.485V17.3686H131.987C131.917 17.3686 131.882 17.3335 131.882 17.2633V12.1053C131.896 12.0351 131.931 12 131.987 12Z" fill="url(#paint3_linear_4520_4290)"/>
<path d="M98.8494 12H129.672C129.742 12.014 129.777 12.0491 129.777 12.1053V17.2633C129.777 17.3335 129.742 17.3686 129.672 17.3686H105.965V20.8424H123.503C123.573 20.8565 123.608 20.8916 123.608 20.9477V25.6426C123.608 25.7128 123.573 25.7479 123.503 25.7479H105.965V29.2427H129.672C129.742 29.2427 129.777 29.2708 129.777 29.3269V34.485C129.777 34.5552 129.742 34.5903 129.672 34.5903H98.8494C98.7792 34.5903 98.7441 34.5552 98.7441 34.485V12.1053C98.7582 12.0351 98.7933 12 98.8494 12Z" fill="url(#paint4_linear_4520_4290)"/>
<path d="M65.7112 12H89.6489C91.7824 12 93.7193 12.9263 95.4597 14.779C96.2457 15.8879 96.6387 16.9826 96.6387 18.0634V34.485C96.6387 34.5552 96.6036 34.5903 96.5334 34.5903H89.5016C89.4314 34.5903 89.3963 34.5552 89.3963 34.485V21.4109C89.3963 19.4178 88.5401 18.1195 86.8278 17.516C86.4208 17.4177 86.0488 17.3686 85.712 17.3686H72.8273V34.485C72.8273 34.5552 72.7922 34.5903 72.722 34.5903H65.7112C65.641 34.5903 65.606 34.5552 65.606 34.485V12.1053C65.62 12.0351 65.6551 12 65.7112 12Z" fill="url(#paint5_linear_4520_4290)"/>
<defs>
<linearGradient id="paint0_linear_4520_4290" x1="29.045" y1="9.43346" x2="27.6081" y2="48.2761" gradientUnits="userSpaceOnUse">
<stop stop-color="white"/>
<stop offset="1" stop-color="#A3A3A3"/>
</linearGradient>
<linearGradient id="paint1_linear_4520_4290" x1="12.6996" y1="-1.57807" x2="10.4834" y2="45.6493" gradientUnits="userSpaceOnUse">
<stop stop-color="white"/>
<stop offset="1" stop-color="#A3A3A3"/>
</linearGradient>
<linearGradient id="paint2_linear_4520_4290" x1="6.43312" y1="-41.5394" x2="31.7067" y2="45.1587" gradientUnits="userSpaceOnUse">
<stop stop-color="white"/>
<stop offset="1" stop-color="#A3A3A3"/>
</linearGradient>
<linearGradient id="paint3_linear_4520_4290" x1="133.821" y1="-4.23678" x2="141.291" y2="30.9453" gradientUnits="userSpaceOnUse">
<stop stop-color="white"/>
<stop offset="1" stop-color="#A3A3A3"/>
</linearGradient>
<linearGradient id="paint4_linear_4520_4290" x1="100.684" y1="-4.23678" x2="108.154" y2="30.9453" gradientUnits="userSpaceOnUse">
<stop stop-color="white"/>
<stop offset="1" stop-color="#A3A3A3"/>
</linearGradient>
<linearGradient id="paint5_linear_4520_4290" x1="67.5455" y1="-4.23678" x2="75.0153" y2="30.9453" gradientUnits="userSpaceOnUse">
<stop stop-color="white"/>
<stop offset="1" stop-color="#A3A3A3"/>
</linearGradient>
</defs>
</svg>
