<svg width="64" height="64" viewBox="0 0 64 64" fill="none" xmlns="http://www.w3.org/2000/svg">
<circle cx="32" cy="32" r="32" fill="#191919"/>
<path d="M26.2599 41.3884H26C25.0572 41.3884 24.5858 41.3884 24.2929 41.0955C24 40.8026 24 40.3312 24 39.3884V38.2764C24 37.7579 24 37.4987 24.1332 37.2672C24.2664 37.0356 24.4673 36.9188 24.8691 36.6851C27.5146 35.1464 31.2715 34.2803 33.7791 35.7759C33.9475 35.8764 34.0991 35.9977 34.2285 36.1431C34.7866 36.77 34.746 37.7161 34.1028 38.2775C33.9669 38.396 33.8222 38.486 33.6764 38.5172C33.7962 38.5033 33.911 38.4874 34.0206 38.4699C34.932 38.3245 35.697 37.8375 36.3974 37.3084L38.2046 35.9433C38.8417 35.462 39.7873 35.4619 40.4245 35.943C40.9982 36.3762 41.1736 37.0894 40.8109 37.6707C40.388 38.3487 39.7921 39.216 39.2199 39.7459C38.6469 40.2766 37.7939 40.7504 37.0975 41.0865C36.326 41.4589 35.4738 41.6734 34.6069 41.8138C32.8488 42.0983 31.0166 42.0549 29.2763 41.6964C28.2925 41.4937 27.2708 41.3884 26.2599 41.3884Z" fill="url(#paint0_linear_4186_10439)"/>
<path d="M30.8613 23.3634C31.3679 22.4545 31.6213 22 32 22C32.3787 22 32.6321 22.4544 33.1387 23.3633L33.2698 23.5985C33.4138 23.8568 33.4858 23.9859 33.598 24.0711C33.7103 24.1563 33.8501 24.188 34.1296 24.2512L34.3842 24.3088C35.3681 24.5314 35.86 24.6427 35.977 25.0191C36.0941 25.3955 35.7587 25.7876 35.088 26.572L34.9144 26.7749C34.7238 26.9978 34.6285 27.1092 34.5857 27.2471C34.5428 27.385 34.5572 27.5336 34.586 27.831L34.6122 28.1018C34.7136 29.1482 34.7644 29.6715 34.4579 29.9041C34.1515 30.1367 33.6909 29.9246 32.7697 29.5005L32.5314 29.3907C32.2696 29.2702 32.1387 29.2099 32 29.2099C31.8613 29.2099 31.7304 29.2702 31.4686 29.3907L31.2303 29.5005C30.3091 29.9246 29.8485 30.1367 29.5421 29.9041C29.2356 29.6715 29.2864 29.1482 29.3878 28.1018L29.414 27.831C29.4428 27.5336 29.4572 27.385 29.4143 27.2471C29.3715 27.1092 29.2762 26.9978 29.0856 26.7749L28.912 26.572C28.2413 25.7876 27.9059 25.3955 28.023 25.0191C28.14 24.6427 28.6319 24.5314 29.6158 24.3088L29.8704 24.2512C30.1499 24.188 30.2897 24.1563 30.402 24.0711C30.5142 23.9859 30.5862 23.8568 30.7302 23.5985L30.8613 23.3634Z" fill="url(#paint1_linear_4186_10439)"/>
<path d="M39.4306 27.6817C39.684 27.2272 39.8106 27 40 27C40.1894 27 40.316 27.2272 40.5694 27.6817L40.6349 27.7992C40.7069 27.9284 40.7429 27.993 40.799 28.0356C40.8551 28.0782 40.925 28.094 41.0648 28.1256L41.1921 28.1544C41.684 28.2657 41.93 28.3214 41.9885 28.5095C42.047 28.6977 41.8794 28.8938 41.544 29.286L41.4572 29.3874C41.3619 29.4989 41.3143 29.5546 41.2928 29.6235C41.2714 29.6925 41.2786 29.7668 41.293 29.9155L41.3061 30.0509C41.3568 30.5741 41.3822 30.8357 41.229 30.952C41.0758 31.0683 40.8455 30.9623 40.3849 30.7502L40.2657 30.6954C40.1348 30.6351 40.0694 30.605 40 30.605C39.9306 30.605 39.8652 30.6351 39.7343 30.6954L39.6151 30.7502C39.1545 30.9623 38.9242 31.0683 38.771 30.952C38.6178 30.8357 38.6432 30.5741 38.6939 30.0509L38.707 29.9155C38.7214 29.7668 38.7286 29.6925 38.7072 29.6235C38.6857 29.5546 38.6381 29.4989 38.5428 29.3874L38.456 29.286C38.1207 28.8938 37.953 28.6977 38.0115 28.5095C38.07 28.3214 38.316 28.2657 38.8079 28.1544L38.9352 28.1256C39.075 28.094 39.1449 28.0782 39.201 28.0356C39.2571 27.993 39.2931 27.9284 39.3651 27.7992L39.4306 27.6817Z" fill="url(#paint2_linear_4186_10439)"/>
<path d="M23.4306 27.6817C23.684 27.2272 23.8106 27 24 27C24.1894 27 24.316 27.2272 24.5694 27.6817L24.6349 27.7992C24.7069 27.9284 24.7429 27.993 24.799 28.0356C24.8551 28.0782 24.925 28.094 25.0648 28.1256L25.1921 28.1544C25.684 28.2657 25.93 28.3214 25.9885 28.5095C26.047 28.6977 25.8794 28.8938 25.544 29.286L25.4572 29.3874C25.3619 29.4989 25.3143 29.5546 25.2928 29.6235C25.2714 29.6925 25.2786 29.7668 25.293 29.9155L25.3061 30.0509C25.3568 30.5741 25.3822 30.8357 25.229 30.952C25.0758 31.0683 24.8455 30.9623 24.3849 30.7502L24.2657 30.6954C24.1348 30.6351 24.0694 30.605 24 30.605C23.9306 30.605 23.8652 30.6351 23.7343 30.6954L23.6151 30.7502C23.1545 30.9623 22.9242 31.0683 22.771 30.952C22.6178 30.8357 22.6432 30.5741 22.6939 30.0509L22.707 29.9155C22.7214 29.7668 22.7286 29.6925 22.7072 29.6235C22.6857 29.5546 22.6381 29.4989 22.5428 29.3874L22.456 29.286C22.1206 28.8938 21.953 28.6977 22.0115 28.5095C22.07 28.3214 22.316 28.2657 22.8079 28.1544L22.9352 28.1256C23.075 28.094 23.1449 28.0782 23.201 28.0356C23.2571 27.993 23.2931 27.9284 23.3651 27.7992L23.4306 27.6817Z" fill="url(#paint3_linear_4186_10439)"/>
<defs>
<linearGradient id="paint0_linear_4186_10439" x1="25.0625" y1="29.9687" x2="26.4113" y2="41.2" gradientUnits="userSpaceOnUse">
<stop stop-color="white"/>
<stop offset="1" stop-color="#A3A3A3"/>
</linearGradient>
<linearGradient id="paint1_linear_4186_10439" x1="23.25" y1="15.5313" x2="25.14" y2="29.9316" gradientUnits="userSpaceOnUse">
<stop stop-color="white"/>
<stop offset="1" stop-color="#A3A3A3"/>
</linearGradient>
<linearGradient id="paint2_linear_4186_10439" x1="23.25" y1="15.5313" x2="25.14" y2="29.9316" gradientUnits="userSpaceOnUse">
<stop stop-color="white"/>
<stop offset="1" stop-color="#A3A3A3"/>
</linearGradient>
<linearGradient id="paint3_linear_4186_10439" x1="23.25" y1="15.5313" x2="25.14" y2="29.9316" gradientUnits="userSpaceOnUse">
<stop stop-color="white"/>
<stop offset="1" stop-color="#A3A3A3"/>
</linearGradient>
</defs>
</svg>
