<svg width="14" height="14" viewBox="0 0 14 14" fill="none" xmlns="http://www.w3.org/2000/svg">
<path d="M0.196812 7.05081C0.144337 7.03726 0.144337 6.96274 0.196812 6.94919L3.81035 6.01638C4.73457 5.7778 5.4563 5.05608 5.69488 4.13185L6.62769 0.518315C6.64124 0.46584 6.71576 0.46584 6.7293 0.518315L7.66211 4.13185C7.9007 5.05608 8.62242 5.7778 9.54664 6.01638L13.1602 6.94919C13.2127 6.96274 13.2127 7.03726 13.1602 7.05081L9.54664 7.98362C8.62242 8.2222 7.9007 8.94392 7.66211 9.86814L6.7293 13.4817C6.71576 13.5342 6.64124 13.5342 6.62769 13.4817L5.69488 9.86815C5.4563 8.94392 4.73458 8.2222 3.81035 7.98362L0.196812 7.05081Z" fill="url(#paint0_linear_4186_10474)"/>
<defs>
<linearGradient id="paint0_linear_4186_10474" x1="-4.38276" y1="1.78242" x2="8.55682" y2="8.87833" gradientUnits="userSpaceOnUse">
<stop stop-color="white"/>
<stop offset="1" stop-color="#A3A3A3"/>
</linearGradient>
</defs>
</svg>
